<svg width="80" height="80" viewBox="0 0 80 80" fill="none" xmlns="http://www.w3.org/2000/svg">
<circle cx="40" cy="40" r="40" fill="#873EAF"/>
<g clip-path="url(#clip0_157_3428)">
<path d="M64.1415 57.9365C63.7266 61.0182 61.653 63.685 58.7495 64.87C57.327 65.462 55.7868 65.6402 54.2459 65.462C52.7649 65.2844 51.2832 64.8102 49.743 63.9223C47.6096 62.7361 45.4762 60.8998 42.9877 58.1739C46.8987 53.3744 49.2682 48.9893 50.1573 45.0794C50.5723 43.242 50.6315 41.5828 50.4539 40.042C50.2171 38.5609 49.6838 37.1976 48.8539 36.0126C47.0171 33.3464 43.936 31.8056 40.4991 31.8056C37.0623 31.8056 33.9812 33.4056 32.1444 36.0126C31.3145 37.1976 30.7817 38.5609 30.5443 40.042C30.3075 41.5828 30.3667 43.3012 30.8409 45.0794C31.7294 48.9893 34.1588 53.4336 38.0106 58.2325C35.5812 60.959 33.3886 62.7958 31.2553 63.9809C29.715 64.87 28.2334 65.3442 26.7523 65.5212C25.1523 65.6994 23.6114 65.462 22.2488 64.9292C19.3453 63.7441 17.2717 61.0768 16.8567 57.9957C16.6791 56.5147 16.7975 55.0336 17.3901 53.3744C17.5676 52.7813 17.8642 52.1899 18.1602 51.4784C18.5751 50.5307 19.0493 49.5226 19.5228 48.5151L19.5826 48.3973C23.6706 39.5678 28.0558 30.5613 32.6185 21.7922L32.7961 21.4358C33.2702 20.5479 33.7438 19.6002 34.2185 18.7111C34.6921 17.7628 35.2255 16.8737 35.8772 16.103C37.1215 14.6805 38.7807 13.9104 40.6175 13.9104C42.4543 13.9104 44.1136 14.6805 45.3578 16.103C46.0096 16.8737 46.5429 17.7628 47.0171 18.7111C47.4912 19.6002 47.9648 20.5479 48.4389 21.4358L48.6171 21.7922C53.12 30.6205 57.5052 39.627 61.5938 48.4565V48.5151C62.0679 49.4634 62.4823 50.5307 62.9564 51.4784C63.253 52.1899 63.549 52.7813 63.7266 53.3744C64.2007 54.9147 64.3783 56.3969 64.1415 57.9365ZM40.4991 55.1514C37.2996 51.1226 35.2255 47.33 34.5145 44.1311C34.2185 42.7679 34.1588 41.5828 34.3369 40.5161C34.4553 39.5678 34.8111 38.7379 35.2846 38.0264C36.4105 36.4281 38.3065 35.4188 40.4991 35.4188C42.6917 35.4188 44.6469 36.3677 45.7136 38.0264C46.1871 38.7379 46.5429 39.5678 46.6613 40.5161C46.8389 41.5828 46.7797 42.8271 46.4837 44.1311C45.7728 47.2714 43.6986 51.0634 40.4991 55.1514ZM67.2226 52.0703C66.9266 51.3594 66.6301 50.5893 66.3341 49.9376C65.8599 48.8715 65.3858 47.8634 64.9708 46.9151L64.9116 46.8565C60.8237 37.9678 56.4385 28.9613 51.8166 20.0744L51.639 19.718C51.1648 18.8289 50.6907 17.8806 50.2171 16.9329C49.624 15.8656 49.0315 14.7409 48.0837 13.6736C46.1871 11.3035 43.4618 10 40.5583 10C37.5956 10 34.9295 11.3035 32.9737 13.5558C32.0852 14.6219 31.4334 15.7478 30.8409 16.8151C30.3667 17.7628 29.8926 18.7111 29.4184 19.6002L29.2409 19.9548C24.6787 28.8429 20.2344 37.85 16.1458 46.7381L16.0866 46.8565C15.6716 47.8042 15.1975 48.8111 14.7233 49.8784C14.4274 50.5307 14.1308 51.2416 13.8348 52.0117C13.0641 54.2037 12.8273 56.2779 13.1233 58.4107C13.7756 62.855 16.7383 66.5885 20.8269 68.2471C22.3672 68.8994 23.9672 69.1954 25.6264 69.1954C26.1006 69.1954 26.6931 69.1362 27.1673 69.0764C29.1225 68.839 31.1369 68.1885 33.0921 67.062C35.522 65.6994 37.833 63.7442 40.4399 60.8998C43.0469 63.7442 45.417 65.6994 47.7872 67.062C49.743 68.1885 51.7574 68.839 53.7126 69.0764C54.1867 69.1362 54.7793 69.1954 55.2534 69.1954C56.9127 69.1954 58.5713 68.8994 60.0529 68.2471C64.2007 66.5885 67.1042 62.7958 67.756 58.4107C68.2301 56.3365 67.9927 54.2635 67.2226 52.0703Z" fill="white"/>
</g>
<defs>
<clipPath id="clip0_157_3428">
<rect width="55" height="59.2969" fill="white" transform="translate(13 10)"/>
</clipPath>
</defs>
</svg>
