<svg width="80" height="80" viewBox="0 0 80 80" fill="none" xmlns="http://www.w3.org/2000/svg">
<circle cx="40" cy="40" r="40" fill="#873EAF"/>
<path d="M66.4 40.625C66.4 38.675 66.225 36.8 65.9 35H40V45.6375H54.8C54.1625 49.075 52.225 51.9875 49.3125 53.9375V60.8375H58.2C63.4 56.05 66.4 49 66.4 40.625Z" fill="#F8F9FF"/>
<path d="M40 67.5C47.425 67.5 53.65 65.0375 58.2 60.8375L49.3125 53.9375C46.85 55.5875 43.7 56.5625 40 56.5625C32.8375 56.5625 26.775 51.725 24.6125 45.225H15.425V52.35C19.95 61.3375 29.25 67.5 40 67.5Z" fill="#F8F9FF"/>
<path d="M24.6125 45.225C24.0625 43.575 23.75 41.8125 23.75 40C23.75 38.1875 24.0625 36.425 24.6125 34.775V27.65H15.425C13.5 31.4821 12.4983 35.7115 12.5 40C12.5 44.4375 13.5625 48.6375 15.425 52.35L24.6125 45.225Z" fill="#F8F9FF"/>
<path d="M40 23.4375C44.0375 23.4375 47.6625 24.825 50.5125 27.55L58.4 19.6625C53.6375 15.225 47.4125 12.5 40 12.5C29.25 12.5 19.95 18.6625 15.425 27.65L24.6125 34.775C26.775 28.275 32.8375 23.4375 40 23.4375Z" fill="#F8F9FF"/>
</svg>
