<svg width="100" height="100" viewBox="0 0 100 100" fill="none" xmlns="http://www.w3.org/2000/svg">
<circle cx="50" cy="50" r="50" fill="#2F1C48"/>
<path d="M41.6962 30.7733C45.3917 24.1466 47.2379 20.8333 50 20.8333C52.7621 20.8333 54.6083 24.1466 58.3037 30.7733L59.2604 32.4883C60.3104 34.3725 60.8354 35.3146 61.6521 35.9358C62.4687 36.5571 63.4896 36.7875 65.5312 37.2483L67.3862 37.6683C74.5612 39.2929 78.1458 40.1037 79.0004 42.8483C79.8521 45.59 77.4079 48.4512 72.5167 54.1708L71.2508 55.6496C69.8625 57.2741 69.1654 58.0879 68.8533 59.0912C68.5412 60.0975 68.6462 61.1825 68.8562 63.3496L69.0487 65.3241C69.7867 72.9571 70.1571 76.7721 67.9229 78.4666C65.6887 80.1641 62.3287 78.6154 55.6146 75.5237L53.8733 74.7246C51.9658 73.8437 51.0121 73.4062 50 73.4062C48.9879 73.4062 48.0342 73.8437 46.1267 74.7246L44.3883 75.5237C37.6712 78.6154 34.3112 80.1612 32.08 78.4696C29.8429 76.7721 30.2133 72.9571 30.9512 65.3241L31.1437 63.3525C31.3537 61.1825 31.4587 60.0975 31.1437 59.0941C30.8346 58.0879 30.1375 57.2741 28.7492 55.6525L27.4833 54.1708C22.5921 48.4541 20.1479 45.5929 20.9996 42.8483C21.8542 40.1037 25.4417 39.29 32.6167 37.6683L34.4717 37.2483C36.5104 36.7875 37.5283 36.5571 38.3479 35.9358C39.1646 35.3146 39.6896 34.3725 40.7396 32.4883L41.6962 30.7733Z" stroke="#F8F9FF" stroke-width="4"/>
</svg>
