<svg width="101" height="100" viewBox="0 0 101 100" fill="none" xmlns="http://www.w3.org/2000/svg">
<circle cx="50.5" cy="50" r="50" fill="#2F1C48"/>
<g clip-path="url(#clip0_174_579)">
<path d="M50.5 49.575C54.8562 49.575 58.4075 45.6937 58.4075 40.9712C58.4075 36.3025 54.875 32.605 50.5 32.605C46.1625 32.605 42.5925 36.3575 42.5925 41.0075C42.61 45.7125 46.1612 49.575 50.5 49.575ZM29.4125 49.9762C33.1825 49.9762 36.2762 46.5887 36.2762 42.4337C36.2762 38.3712 33.22 35.0937 29.4125 35.0937C25.6412 35.0937 22.5287 38.425 22.5475 42.47C22.5662 46.6075 25.6412 49.9762 29.4125 49.9762ZM71.6062 49.9762C75.3587 49.9762 78.4525 46.6075 78.4525 42.47C78.4712 38.425 75.3587 35.0937 71.6062 35.0937C67.7812 35.0937 64.7238 38.37 64.7238 42.4337C64.7238 46.5887 67.8175 49.9762 71.6062 49.9762ZM50.5 46.81C47.8275 46.81 45.5387 44.2475 45.5387 41.0075C45.5387 37.8225 47.7912 35.37 50.5012 35.37C53.2275 35.37 55.4612 37.7862 55.4612 40.97C55.4612 44.2112 53.2087 46.81 50.5 46.81ZM29.4125 47.25C27.1788 47.25 25.275 45.1075 25.275 42.4712C25.275 39.8912 27.16 37.8212 29.4125 37.8212C31.7188 37.8212 33.5675 39.8537 33.5675 42.435C33.5675 45.1075 31.6637 47.25 29.4125 47.25ZM71.6062 47.25C69.3362 47.25 67.4325 45.1075 67.4325 42.435C67.4325 39.8537 69.2812 37.8225 71.6062 37.8225C73.8575 37.8225 75.725 39.8912 75.725 42.4725C75.725 45.1075 73.8387 47.25 71.6062 47.25ZM19.2337 66.7625H33.6037C32.725 66.2687 32.0475 65.17 32.1762 64.0537H18.7762C18.41 64.0537 18.2275 63.9075 18.2275 63.56C18.2275 59.02 23.4075 54.7725 29.3937 54.7725C31.7 54.7725 33.7687 55.3225 35.5437 56.365C36.1327 55.6187 36.83 54.9648 37.6125 54.425C35.2512 52.8687 32.4137 52.0637 29.3937 52.0637C21.7237 52.0637 15.5 57.6287 15.5 63.725C15.5 65.7562 16.745 66.7625 19.2337 66.7625ZM81.7837 66.7625C84.255 66.7625 85.5 65.7562 85.5 63.725C85.5 57.6287 79.275 52.0637 71.6062 52.0637C68.5862 52.0637 65.7662 52.8687 63.3875 54.4262C64.2113 54.9925 64.8875 55.6337 65.475 56.365C67.2312 55.3225 69.3175 54.7725 71.6062 54.7725C77.5925 54.7725 82.7725 59.02 82.7725 63.56C82.7725 63.9075 82.6075 64.0537 82.2412 64.0537H68.8412C68.9512 65.17 68.2925 66.2687 67.4137 66.7625H81.7837ZM39.0037 66.7625H61.9962C65.0337 66.7625 66.4812 65.8475 66.4812 63.8337C66.4812 59.0375 60.4212 52.1 50.5 52.1C40.56 52.1 34.5 59.0375 34.5 63.8337C34.5 65.8475 35.9475 66.7625 39.0037 66.7625ZM38.125 64C37.65 64 37.4487 63.8712 37.4487 63.4875C37.4487 60.4837 42.0987 54.865 50.5 54.865C58.8837 54.865 63.5337 60.4837 63.5337 63.4862C63.5337 63.8712 63.35 63.9987 62.875 63.9987L38.125 64Z" fill="#F8F9FF"/>
</g>
<defs>
<clipPath id="clip0_174_579">
<rect width="70" height="70" fill="white" transform="translate(15.5 15)"/>
</clipPath>
</defs>
</svg>
