<svg width="80" height="80" viewBox="0 0 80 80" fill="none" xmlns="http://www.w3.org/2000/svg">
<circle cx="40" cy="40" r="40" fill="#873EAF"/>
<g clip-path="url(#clip0_157_3358)">
<path d="M48.1096 16.7543C48.1096 16.7543 47.4703 16.9368 46.4201 17.2563C46.2374 16.663 45.9635 15.9784 45.5982 15.2483C44.411 12.9664 42.6301 11.7342 40.5297 11.7342C40.3927 11.7342 40.2557 11.7342 40.0731 11.7798C40.0274 11.6886 39.9361 11.6429 39.8904 11.5516C38.9772 10.5476 37.79 10.0913 36.3744 10.1369C33.6347 10.2282 30.895 12.1906 28.7032 15.7046C27.1507 18.169 25.9635 21.2723 25.6438 23.6911C22.4932 24.6495 20.3014 25.334 20.2557 25.3797C18.6575 25.8817 18.6119 25.9273 18.4292 27.4334C18.1553 28.5743 14 60.7484 14 60.7484L48.5205 66.7269V16.663C48.3379 16.7086 48.2009 16.7086 48.1096 16.7543ZM40.1187 19.2187C38.2922 19.7663 36.2831 20.4052 34.3196 20.9985C34.8676 18.8536 35.9635 16.7086 37.242 15.2939C37.7443 14.7919 38.4292 14.1986 39.2055 13.8335C39.9817 15.4764 40.1644 17.7127 40.1187 19.2187ZM36.4201 11.9624C37.0594 11.9624 37.6073 12.0993 38.0639 12.3731C37.3333 12.7382 36.6027 13.3315 35.9178 14.016C34.1826 15.8872 32.8584 18.8079 32.3105 21.5918C30.6667 22.0938 29.0228 22.5958 27.516 23.0522C28.4749 18.7167 32.1735 12.0993 36.4201 11.9624ZM31.0776 37.0628C31.2603 39.9836 38.9772 40.6225 39.4338 47.5137C39.7534 52.9445 36.5571 56.6411 31.9452 56.9149C26.3744 57.28 23.3151 53.9941 23.3151 53.9941L24.5023 48.9741C24.5023 48.9741 27.5616 51.3016 30.0274 51.119C31.6256 51.0277 32.2192 49.7043 32.1735 48.7915C31.9452 44.958 25.6438 45.1862 25.2329 38.8883C24.8676 33.64 28.3379 28.3005 36.0091 27.7985C38.9772 27.6159 40.484 28.3461 40.484 28.3461L38.7489 34.9178C38.7489 34.9178 36.7854 34.0051 34.4566 34.1876C31.0776 34.4158 31.032 36.5608 31.0776 37.0628ZM41.9452 18.671C41.9452 17.3019 41.7626 15.3395 41.1233 13.6966C43.2237 14.1073 44.2283 16.4348 44.6849 17.8496C43.863 18.0777 42.9498 18.3516 41.9452 18.671Z" fill="white"/>
<path d="M49.6621 66.5443L64 62.9846C64 62.9846 57.8356 21.318 57.7899 21.0441C57.7443 20.7703 57.516 20.5878 57.2877 20.5878C57.0594 20.5878 53.0411 20.4965 53.0411 20.4965C53.0411 20.4965 50.5753 18.1234 49.6621 17.2106V66.5443Z" fill="white"/>
</g>
<defs>
<clipPath id="clip0_157_3358">
<rect width="50" height="56.8182" fill="white" transform="translate(14 10)"/>
</clipPath>
</defs>
</svg>
