<svg width="80" height="80" viewBox="0 0 80 80" fill="none" xmlns="http://www.w3.org/2000/svg">
<circle cx="40" cy="40" r="40" fill="#873EAF"/>
<g clip-path="url(#clip0_157_3409)">
<path d="M57.4785 36.6469C47.954 30.9906 32.2435 30.4706 23.1512 33.2301C21.6911 33.6733 20.147 32.8487 19.7047 31.389C19.2621 29.9279 20.0855 28.3849 21.5467 27.9411C31.9841 24.7729 49.3347 25.3848 60.2994 31.8935C61.6127 32.6733 62.0435 34.3694 61.2652 35.6805C60.4861 36.9937 58.7886 37.4266 57.4785 36.6469ZM57.1666 45.0247C56.4983 46.109 55.0806 46.4492 53.9978 45.7833C46.0572 40.9023 33.949 39.4884 24.5547 42.34C23.3364 42.7082 22.0497 42.0212 21.6796 40.8053C21.3126 39.5871 21.9998 38.3027 23.2158 37.9322C33.9475 34.6757 47.2886 36.253 56.4087 41.8576C57.4916 42.5246 57.8324 43.9429 57.1666 45.0247ZM53.5511 53.0705C53.0201 53.9413 51.8864 54.2141 51.0188 53.6833C44.0801 49.4427 35.3467 48.485 25.0615 50.8342C24.0703 51.0614 23.0825 50.4404 22.8565 49.4493C22.6295 48.4586 23.2482 47.4706 24.2415 47.2444C35.4969 44.6714 45.1518 45.7788 52.94 50.5378C53.8083 51.0682 54.0817 52.2025 53.5511 53.0705ZM40.0001 10.4523C23.6816 10.4523 10.4523 23.6813 10.4523 39.9996C10.4523 56.3198 23.6816 69.5476 40.0001 69.5476C56.3191 69.5476 69.5477 56.3198 69.5477 39.9996C69.5477 23.6813 56.3191 10.4523 40.0001 10.4523Z" fill="#F8F9FF"/>
</g>
<defs>
<clipPath id="clip0_157_3409">
<rect width="60" height="60" fill="white" transform="translate(10 10)"/>
</clipPath>
</defs>
</svg>
