<svg width="80" height="80" viewBox="0 0 80 80" fill="none" xmlns="http://www.w3.org/2000/svg">
<circle cx="40" cy="40" r="40" fill="#873EAF"/>
<g clip-path="url(#clip0_157_3415)">
<path d="M70 40C70 56.5634 56.5634 70 40 70C23.4366 70 10 56.5634 10 40C10 23.4366 23.4366 10 40 10C56.5634 10 70 23.4366 70 40Z" fill="#F8F9FF"/>
<path d="M58.507 34.0845L62.1409 30.1127H54.1127C50.1409 27.4085 45.2394 25.8028 40 25.8028C34.7606 25.8028 29.9437 27.4085 25.9718 30.1127H17.9437L21.5775 34.0845C19.3803 36.1127 17.9437 38.9859 17.9437 42.2817C17.9437 48.3662 22.8451 53.3521 29.0141 53.3521C31.8873 53.3521 34.507 52.2535 36.5352 50.3944L40.0845 54.2817L43.6338 50.3944C45.5775 52.2535 48.1972 53.3521 51.1549 53.3521C57.2394 53.3521 62.2254 48.4507 62.2254 42.2817C62.0563 38.9859 60.7042 36.1127 58.507 34.0845ZM28.9296 49.7183C24.7887 49.7183 21.493 46.338 21.493 42.2817C21.493 38.1409 24.8732 34.8451 28.9296 34.8451C33.0704 34.8451 36.3662 38.2254 36.3662 42.2817C36.4507 46.338 33.0704 49.7183 28.9296 49.7183ZM40 42.0282C40 37.1268 36.4507 32.9014 31.7183 31.1268C34.2535 30.0282 37.0423 29.4366 40 29.4366C42.9577 29.4366 45.7465 30.0282 48.2817 31.1268C43.5493 32.9014 40 37.1268 40 42.0282ZM51.0704 49.7183C46.9296 49.7183 43.6338 46.338 43.6338 42.2817C43.6338 38.1409 47.0141 34.8451 51.0704 34.8451C55.2113 34.8451 58.507 38.2254 58.507 42.2817C58.507 46.338 55.1268 49.7183 51.0704 49.7183ZM51.0704 38.3099C48.8732 38.3099 47.1831 40.0845 47.1831 42.1972C47.1831 44.3099 48.9577 46.0845 51.0704 46.0845C53.2676 46.0845 54.9578 44.3099 54.9578 42.1972C54.9578 40.0845 53.1831 38.3099 51.0704 38.3099ZM32.9014 42.1972C32.9014 44.3944 31.1268 46.0845 29.0141 46.0845C26.8169 46.0845 25.1268 44.3099 25.1268 42.1972C25.1268 40.0845 26.9014 38.3099 29.0141 38.3099C31.1268 38.3099 32.9014 40.0845 32.9014 42.1972Z" fill="#2D2D2D"/>
</g>
<defs>
<clipPath id="clip0_157_3415">
<rect width="60" height="60" fill="white" transform="translate(10 10)"/>
</clipPath>
</defs>
</svg>
